<svg xmlns="http://www.w3.org/2000/svg" width="1000" height="336" viewBox="0 0 1000 336" version="1.1"><path d="" stroke="none" fill="#06e4fc" fill-rule="evenodd"/><path d="M 101.500 1.399 C 92.833 4.140, 81.066 14.123, 82.401 17.603 C 82.730 18.459, 82.549 18.839, 81.980 18.488 C 81.432 18.149, 80.152 19.813, 79.136 22.186 C 71.444 40.150, 71.255 68.106, 78.598 102.009 C 79.120 104.423, 78.697 104.665, 67.506 108.348 C 54.986 112.469, 29.500 124.753, 29.500 126.667 C 29.500 127.308, 29.090 128.208, 28.590 128.667 C 28.061 129.151, 27.981 128.976, 28.399 128.250 C 29.471 126.387, 27.456 126.739, 25.872 128.692 C 24.689 130.151, 24.706 130.262, 26 129.500 C 27.294 128.738, 27.311 128.849, 26.128 130.308 C 24.642 132.140, 23.494 132.628, 24.500 131 C 25.695 129.067, 23.288 130.025, 21.405 132.233 C 19.519 134.443, 19.520 134.451, 21.500 133 C 23.480 131.549, 23.481 131.557, 21.595 133.767 C 19.643 136.055, 18.394 136.790, 19.500 135 C 21.028 132.528, 18.038 134.386, 14.208 138.288 C 10.128 142.445, 8.698 144.900, 11.250 143.367 C 12.099 142.857, 12.060 143.158, 11.128 144.308 C 9.529 146.279, 8.538 146.572, 9.633 144.750 C 10.143 143.901, 9.842 143.940, 8.692 144.872 C 6.800 146.407, 6.352 148.518, 8.155 147.405 C 8.876 146.959, 9.037 147.131, 8.585 147.862 C 8.187 148.506, 7.433 148.768, 6.909 148.444 C 4.516 146.965, 0.500 159.251, 0.515 168 C 0.531 176.629, 5.419 190.095, 7.965 188.522 C 8.458 188.217, 9.187 188.494, 9.585 189.138 C 10.037 189.869, 9.876 190.041, 9.155 189.595 C 7.103 188.327, 7.931 190.631, 10.233 192.595 C 12.443 194.481, 12.451 194.480, 11.013 192.500 C 9.930 191.009, 10.253 191.117, 12.280 192.924 C 15.109 195.446, 16.129 197.182, 13.500 195 C 8.901 191.183, 12.937 196.614, 17.886 200.901 C 23.682 205.923, 25.842 207.205, 24.367 204.750 C 23.857 203.901, 24.158 203.940, 25.308 204.872 C 27.279 206.471, 27.572 207.462, 25.750 206.367 C 24.901 205.857, 24.940 206.158, 25.872 207.308 C 27.456 209.261, 29.471 209.613, 28.399 207.750 C 27.981 207.024, 28.061 206.849, 28.590 207.333 C 29.090 207.792, 29.500 208.654, 29.500 209.250 C 29.500 209.846, 30.125 210.542, 30.889 210.796 C 31.839 211.113, 32.026 210.823, 31.479 209.880 C 31.007 209.065, 31.052 208.841, 31.590 209.333 C 32.090 209.792, 32.500 210.692, 32.500 211.333 C 32.500 213.072, 57.030 225.069, 68.500 228.939 C 74 230.795, 78.621 232.402, 78.770 232.510 C 78.918 232.618, 78.343 235.711, 77.491 239.383 C 70.586 269.156, 73.660 322.654, 81.980 317.512 C 82.549 317.161, 82.730 317.541, 82.401 318.397 C 81.571 320.560, 90.433 329.657, 96.480 332.850 C 103.597 336.607, 120.886 336.735, 131.500 333.108 C 141.780 329.596, 156.220 322.165, 155.386 320.815 C 154.967 320.137, 155.141 319.969, 155.825 320.392 C 157.233 321.262, 161.257 319.225, 160.512 318.019 C 160.212 317.535, 160.494 316.813, 161.138 316.415 C 161.912 315.937, 162.040 316.127, 161.515 316.975 C 160.986 317.831, 161.185 318.105, 162.111 317.796 C 162.875 317.542, 163.500 316.846, 163.500 316.250 C 163.500 315.654, 163.910 314.792, 164.410 314.333 C 164.939 313.849, 165.019 314.024, 164.601 314.750 C 163.529 316.613, 165.544 316.261, 167.128 314.308 C 168.311 312.849, 168.294 312.738, 167 313.500 C 165.706 314.262, 165.689 314.151, 166.872 312.692 C 168.358 310.860, 169.506 310.372, 168.500 312 C 167.456 313.689, 169.669 313.106, 171.128 311.308 C 172.311 309.849, 172.294 309.738, 171 310.500 C 169.706 311.262, 169.689 311.151, 170.872 309.692 C 172.358 307.860, 173.506 307.372, 172.500 309 C 171.305 310.933, 173.712 309.975, 175.595 307.767 C 177.481 305.557, 177.480 305.549, 175.500 307 C 173.520 308.451, 173.519 308.443, 175.405 306.233 C 177.357 303.945, 178.606 303.210, 177.500 305 C 175.928 307.544, 178.987 305.578, 182.547 301.756 C 186.338 297.687, 186.356 297.635, 183 300.500 C 179.644 303.365, 179.662 303.313, 183.453 299.244 C 187.225 295.194, 189.623 293.339, 187 296.500 C 185.402 298.426, 186.435 298.416, 189.394 296.477 C 191.475 295.114, 191.850 295.114, 192.981 296.477 C 193.676 297.315, 193.895 298, 193.467 298 C 193.040 298, 193.505 298.900, 194.500 300 C 196.353 302.047, 198.613 302.801, 197.500 301 C 196.286 299.035, 197.674 300.053, 200.563 303.246 L 203.500 306.493 200.500 304 L 197.500 301.507 200.437 304.754 C 203.322 307.942, 205.823 309.206, 204.387 306.750 C 203.985 306.063, 204.634 306.357, 205.828 307.405 C 208.420 309.678, 208.745 310.822, 206.250 308.890 C 204.825 307.786, 204.854 307.950, 206.405 309.767 C 208.288 311.975, 210.695 312.933, 209.500 311 C 208.494 309.372, 209.642 309.860, 211.128 311.692 C 212.311 313.151, 212.294 313.262, 211 312.500 C 209.706 311.738, 209.689 311.849, 210.872 313.308 C 212.407 315.200, 214.518 315.648, 213.405 313.845 C 212.959 313.124, 213.131 312.963, 213.862 313.415 C 214.506 313.813, 214.800 314.515, 214.515 314.976 C 213.784 316.159, 228.143 325.159, 229.767 324.536 C 230.502 324.254, 230.843 324.445, 230.524 324.961 C 229.744 326.223, 233.778 328.299, 235.630 327.588 C 236.441 327.277, 236.862 327.415, 236.565 327.894 C 234.718 330.884, 256.017 336.316, 267.500 335.784 C 300.201 334.267, 315.515 286.757, 300.468 233.500 C 299.969 231.733, 301.096 231.097, 310.166 228.034 C 321.877 224.080, 346.500 212.084, 346.500 210.333 C 346.500 209.692, 346.910 208.792, 347.410 208.333 C 347.948 207.841, 347.993 208.065, 347.521 208.880 C 346.974 209.823, 347.161 210.113, 348.111 209.796 C 348.875 209.542, 349.500 208.846, 349.500 208.250 C 349.500 207.654, 349.910 206.792, 350.410 206.333 C 350.939 205.849, 351.019 206.024, 350.601 206.750 C 349.529 208.613, 351.544 208.261, 353.128 206.308 C 354.311 204.849, 354.294 204.738, 353 205.500 C 351.706 206.262, 351.689 206.151, 352.872 204.692 C 354.358 202.860, 355.506 202.372, 354.500 204 C 353.228 206.059, 355.392 204.881, 359.379 201.345 C 365.369 196.032, 372.093 187.696, 371.545 186.262 C 371.285 185.581, 371.591 185.131, 372.226 185.262 C 380.607 186.990, 378.878 156.095, 370.029 145.990 C 368.829 144.621, 368.184 144.175, 368.596 145 C 369.096 146.002, 368.623 145.868, 367.172 144.595 C 364.746 142.467, 364.148 141.048, 366.500 143 C 369.621 145.590, 367.838 142.247, 364.208 138.703 C 360.449 135.033, 358.215 133.843, 359.602 136.250 C 359.998 136.938, 359.125 136.409, 357.661 135.076 C 354.432 132.134, 354.096 130.925, 357.250 133.595 L 359.500 135.500 357.563 133.215 C 356.498 131.958, 355.050 131.151, 354.345 131.421 C 353.641 131.691, 352.755 131.413, 352.378 130.802 C 351.921 130.064, 352.162 129.975, 353.095 130.537 C 354.292 131.258, 354.296 131.133, 353.128 129.692 C 351.544 127.739, 349.529 127.387, 350.601 129.250 C 351.019 129.976, 350.939 130.151, 350.410 129.667 C 349.910 129.208, 349.500 128.346, 349.500 127.750 C 349.500 127.154, 348.875 126.458, 348.111 126.204 C 347.161 125.887, 346.974 126.177, 347.521 127.120 C 347.993 127.935, 347.948 128.159, 347.410 127.667 C 346.910 127.208, 346.500 126.308, 346.500 125.667 C 346.500 123.852, 323.767 112.943, 310.726 108.500 C 302.254 105.614, 299.129 104.121, 299.504 103.138 C 304.549 89.904, 306.206 47.277, 302.236 32.846 C 299.838 24.126, 295.365 14.656, 294.033 15.479 C 293.541 15.784, 292.813 15.506, 292.415 14.862 C 291.963 14.131, 292.124 13.959, 292.845 14.405 C 295.332 15.941, 293.796 13.368, 289.792 9.288 C 285.761 5.180, 283.084 3.614, 284.601 6.250 C 285.019 6.976, 284.939 7.151, 284.410 6.667 C 283.910 6.208, 283.500 5.321, 283.500 4.695 C 283.500 0.255, 262.598 -1.424, 250.174 2.019 C 241.785 4.344, 222.647 13.620, 223.476 14.960 C 223.782 15.456, 223.506 16.187, 222.862 16.585 C 222.088 17.063, 221.960 16.873, 222.485 16.025 C 223.014 15.169, 222.815 14.895, 221.889 15.204 C 221.125 15.458, 220.500 16.154, 220.500 16.750 C 220.500 17.346, 220.090 18.208, 219.590 18.667 C 219.052 19.159, 219.007 18.935, 219.479 18.120 C 220.026 17.177, 219.839 16.887, 218.889 17.204 C 218.125 17.458, 217.500 18.154, 217.500 18.750 C 217.500 19.346, 217.090 20.208, 216.590 20.667 C 216.052 21.159, 216.007 20.935, 216.479 20.120 C 217.026 19.177, 216.839 18.887, 215.889 19.204 C 215.125 19.458, 214.500 20.154, 214.500 20.750 C 214.500 21.346, 214.090 22.208, 213.590 22.667 C 213.061 23.151, 212.981 22.976, 213.399 22.250 C 214.471 20.387, 212.456 20.739, 210.872 22.692 C 209.689 24.151, 209.706 24.262, 211 23.500 C 212.294 22.738, 212.311 22.849, 211.128 24.308 C 209.642 26.140, 208.494 26.628, 209.500 25 C 209.840 24.450, 209.697 24, 209.181 24 C 207.961 24, 205.865 26.532, 206.533 27.200 C 206.816 27.483, 206.276 28.342, 205.332 29.107 C 204.197 30.029, 203.870 30.077, 204.367 29.250 C 205.848 26.785, 203.317 28.063, 200.437 31.234 C 197.968 33.953, 197.899 34.155, 200 32.500 C 202.101 30.845, 202.032 31.047, 199.563 33.766 C 196.630 36.995, 194.643 38.340, 197 35.500 C 199.650 32.307, 196.209 34.199, 192.946 37.729 C 190.809 40.042, 190.449 40.709, 192 39.486 L 194.500 37.514 192.076 40.257 C 189.570 43.093, 188.819 43.600, 189.250 42.170 C 189.388 41.713, 186.962 39.013, 183.860 36.170 C 178.351 31.121, 176.142 29.735, 177.613 32.250 C 178.015 32.938, 177.366 32.643, 176.172 31.595 C 173.580 29.322, 173.255 28.178, 175.750 30.110 C 177.175 31.214, 177.146 31.050, 175.595 29.233 C 173.578 26.869, 171.361 26.133, 172.633 28.250 C 173.143 29.099, 172.842 29.060, 171.692 28.128 C 169.721 26.529, 169.428 25.538, 171.250 26.633 C 172.058 27.118, 172.001 26.769, 171.090 25.646 C 170.314 24.691, 169.091 24.135, 168.372 24.411 C 167.653 24.687, 166.755 24.413, 166.378 23.802 C 165.962 23.129, 166.146 22.972, 166.845 23.405 C 167.480 23.797, 168 23.870, 168 23.567 C 168 22.206, 154.033 13.861, 152.914 14.553 C 152.122 15.043, 151.948 14.893, 152.421 14.127 C 156.070 8.223, 113.537 -2.408, 101.500 1.399 M 273.796 16.761 C 274.603 17.330, 272.155 17.506, 267.296 17.226 C 260.638 16.843, 258.405 17.172, 252 19.477 C 247.875 20.961, 243.530 22.249, 242.345 22.338 C 241.161 22.427, 240.389 22.820, 240.631 23.212 C 241.258 24.226, 233.134 28.201, 231.941 27.463 C 231.396 27.127, 231.074 27.391, 231.225 28.051 C 231.376 28.710, 230.875 29.477, 230.111 29.755 C 229.155 30.102, 228.971 29.829, 229.521 28.880 C 229.993 28.065, 229.948 27.841, 229.410 28.333 C 228.910 28.792, 228.500 29.654, 228.500 30.250 C 228.500 30.846, 227.875 31.542, 227.111 31.796 C 226.161 32.113, 225.974 31.823, 226.521 30.880 C 226.993 30.065, 226.948 29.841, 226.410 30.333 C 225.910 30.792, 225.500 31.654, 225.500 32.250 C 225.500 32.846, 224.875 33.542, 224.111 33.796 C 223.268 34.077, 222.996 33.815, 223.420 33.130 C 224.490 31.398, 223.417 31.788, 221.872 33.692 C 220.689 35.151, 220.706 35.262, 222 34.500 C 223.294 33.738, 223.311 33.849, 222.128 35.308 C 220.669 37.106, 218.456 37.689, 219.500 36 C 220.506 34.372, 219.358 34.860, 217.872 36.692 C 216.689 38.151, 216.706 38.262, 218 37.500 C 219.294 36.738, 219.311 36.849, 218.128 38.308 C 216.544 40.260, 214.522 40.615, 215.613 38.750 C 216.015 38.063, 215.366 38.357, 214.172 39.405 C 211.579 41.679, 211.260 42.813, 213.750 40.903 C 214.713 40.165, 214.409 40.784, 213.076 42.280 C 210.606 45.051, 208.309 46.018, 209.585 43.750 C 209.972 43.063, 208.208 44.497, 205.665 46.938 C 203.123 49.378, 201.254 51.587, 201.512 51.846 C 201.771 52.104, 201.545 52.844, 201.010 53.488 C 200.334 54.303, 201.023 55.552, 203.268 57.580 L 206.500 60.500 203.506 57 C 200.641 53.649, 200.694 53.669, 204.756 57.453 C 208.785 61.205, 210.448 63.952, 207.750 62.398 C 207.063 62.002, 207.591 62.875, 208.924 64.339 C 211.867 67.569, 213.070 67.901, 210.412 64.750 C 208.703 62.724, 208.787 62.741, 211.257 64.924 C 214.034 67.379, 215.048 69.731, 212.750 68.387 C 212.063 67.985, 212.357 68.634, 213.405 69.828 C 215.678 72.420, 216.822 72.745, 214.890 70.250 C 213.786 68.825, 213.950 68.854, 215.767 70.405 C 218.136 72.426, 218.859 74.620, 216.750 73.387 C 216.063 72.985, 216.357 73.634, 217.405 74.828 C 219.678 77.420, 220.822 77.745, 218.890 75.250 C 217.786 73.825, 217.950 73.854, 219.767 75.405 C 222.131 77.422, 222.867 79.639, 220.750 78.367 C 219.901 77.857, 219.940 78.158, 220.872 79.308 C 222.471 81.279, 223.462 81.572, 222.367 79.750 C 221.857 78.901, 222.158 78.940, 223.308 79.872 C 225.258 81.454, 225.619 83.490, 223.750 82.367 C 222.901 81.857, 222.940 82.158, 223.872 83.308 C 225.471 85.279, 226.462 85.572, 225.367 83.750 C 224.857 82.901, 225.158 82.940, 226.308 83.872 C 228.258 85.454, 228.619 87.490, 226.750 86.367 C 225.901 85.857, 225.940 86.158, 226.872 87.308 C 228.471 89.279, 229.462 89.572, 228.367 87.750 C 227.857 86.901, 228.158 86.940, 229.308 87.872 C 231.261 89.456, 231.613 91.471, 229.750 90.399 C 229.024 89.981, 228.849 90.061, 229.333 90.590 C 229.792 91.090, 230.467 91.539, 230.833 91.586 C 231.200 91.634, 232.175 91.930, 233 92.243 C 233.825 92.557, 240.350 93.542, 247.500 94.431 C 254.650 95.320, 265.347 97.002, 271.272 98.168 C 277.197 99.335, 282.284 100.049, 282.578 99.755 C 283.862 98.471, 287.140 76.454, 287.687 65.441 C 288.523 48.615, 287.002 38.886, 281.458 25.586 C 280.853 24.134, 280.980 23.869, 281.985 24.490 C 282.872 25.039, 283.070 24.923, 282.585 24.138 C 282.187 23.494, 281.512 23.184, 281.084 23.448 C 280.176 24.009, 274.722 18.579, 274.977 17.368 C 275.072 16.918, 274.554 16.392, 273.825 16.199 C 272.750 15.914, 272.745 16.020, 273.796 16.761 M 104.147 18.534 C 102.302 19.335, 100.441 19.772, 100.010 19.506 C 99.579 19.240, 98.613 19.778, 97.863 20.703 C 96.926 21.859, 96.890 22.149, 97.750 21.633 C 99.619 20.510, 99.258 22.546, 97.308 24.128 C 95.867 25.296, 95.742 25.292, 96.463 24.095 C 97.041 23.135, 96.939 22.920, 96.138 23.415 C 95.494 23.813, 95.188 24.495, 95.457 24.930 C 95.726 25.366, 95.080 28.187, 94.021 31.200 C 88.862 45.880, 88.728 65.575, 93.618 90.500 C 95.626 100.734, 94.879 100.310, 106.854 98.028 C 112.503 96.951, 123.509 95.274, 131.312 94.300 C 142.841 92.861, 145.842 92.151, 147.326 90.514 C 148.331 89.407, 148.867 89.063, 148.517 89.750 C 147.607 91.542, 148.519 91.291, 150.128 89.308 C 151.060 88.158, 151.099 87.857, 150.250 88.367 C 148.381 89.490, 148.742 87.454, 150.692 85.872 C 151.842 84.940, 152.143 84.901, 151.633 85.750 C 150.538 87.572, 151.529 87.279, 153.128 85.308 C 154.060 84.158, 154.099 83.857, 153.250 84.367 C 151.381 85.490, 151.742 83.454, 153.692 81.872 C 154.842 80.940, 155.143 80.901, 154.633 81.750 C 153.538 83.572, 154.529 83.279, 156.128 81.308 C 157.060 80.158, 157.099 79.857, 156.250 80.367 C 154.381 81.490, 154.742 79.454, 156.692 77.872 C 158.151 76.689, 158.262 76.706, 157.500 78 C 156.738 79.294, 156.849 79.311, 158.308 78.128 C 160.140 76.642, 160.628 75.494, 159 76.500 C 157.067 77.695, 158.025 75.288, 160.233 73.405 C 162.443 71.519, 162.451 71.520, 161 73.500 C 159.549 75.480, 159.557 75.481, 161.767 73.595 C 164.055 71.643, 164.790 70.394, 163 71.500 C 160.876 72.812, 162.136 70.229, 164.743 67.924 L 167.486 65.500 165.500 68 L 163.514 70.500 166.257 68.076 C 168.995 65.655, 169.892 64.331, 168 65.500 C 165.581 66.995, 167.330 64.088, 170.741 60.946 C 174.140 57.814, 174.255 57.773, 172.004 60.500 C 170.237 62.641, 170.740 62.368, 173.764 59.547 C 176.094 57.373, 178 55.391, 178 55.142 C 178 54.893, 177.100 55.505, 176 56.500 C 174.900 57.495, 174 57.817, 174 57.214 C 174 56.611, 174.448 55.841, 174.995 55.503 C 177.792 53.774, 177.908 51.263, 175.300 48.888 C 173.858 47.575, 173.002 47.063, 173.398 47.750 C 174.804 50.191, 172.330 48.951, 169.437 45.766 C 166.977 43.056, 166.906 42.852, 169 44.508 L 171.500 46.486 169.076 43.743 C 166.655 41.005, 165.331 40.108, 166.500 42 C 167.695 43.933, 165.288 42.975, 163.405 40.767 C 161.519 38.557, 161.520 38.549, 163.500 40 C 165.480 41.451, 165.481 41.443, 163.595 39.233 C 161.643 36.945, 160.394 36.210, 161.500 38 C 162.544 39.689, 160.331 39.106, 158.872 37.308 C 157.689 35.849, 157.706 35.738, 159 36.500 C 160.294 37.262, 160.311 37.151, 159.128 35.692 C 157.583 33.788, 156.510 33.398, 157.580 35.130 C 158.004 35.815, 157.732 36.077, 156.889 35.796 C 156.125 35.542, 155.500 34.846, 155.500 34.250 C 155.500 33.654, 155.090 32.792, 154.590 32.333 C 154.052 31.841, 154.007 32.065, 154.479 32.880 C 155.026 33.823, 154.839 34.113, 153.889 33.796 C 153.125 33.542, 152.500 32.846, 152.500 32.250 C 152.500 31.654, 152.090 30.792, 151.590 30.333 C 151.052 29.841, 151.007 30.065, 151.479 30.880 C 152.026 31.823, 151.839 32.113, 150.889 31.796 C 150.125 31.542, 149.500 30.846, 149.500 30.250 C 149.500 29.654, 149.090 28.792, 148.590 28.333 C 148.052 27.841, 148.007 28.065, 148.479 28.880 C 149.029 29.829, 148.845 30.102, 147.889 29.755 C 147.125 29.477, 146.624 28.710, 146.775 28.051 C 146.926 27.391, 146.631 27.110, 146.121 27.426 C 145.610 27.741, 141.436 26.211, 136.846 24.026 C 122.749 17.313, 111.363 15.401, 104.147 18.534 M 184.883 67.705 C 183.572 69.145, 183.063 69.998, 183.750 69.602 C 186.191 68.196, 184.951 70.670, 181.766 73.563 C 179.056 76.023, 178.852 76.094, 180.508 74 L 182.486 71.500 179.743 73.924 C 177.005 76.345, 176.108 77.669, 178 76.500 C 180.108 75.197, 178.873 77.765, 176.280 80.076 C 174.253 81.883, 173.930 81.991, 175.013 80.500 C 176.451 78.520, 176.443 78.519, 174.233 80.405 C 171.945 82.357, 171.210 83.606, 173 82.500 C 174.933 81.305, 173.975 83.712, 171.767 85.595 C 169.558 87.480, 169.549 87.479, 170.969 85.500 C 172.217 83.760, 172.216 83.667, 170.963 84.788 C 170.171 85.497, 169.518 86.846, 169.512 87.786 C 169.505 88.726, 168.975 89.496, 168.333 89.497 C 167.692 89.499, 166.861 89.805, 166.488 90.179 C 166.114 90.552, 175.743 90.904, 187.885 90.961 C 208.669 91.058, 209.923 90.960, 209.294 89.282 C 208.687 87.663, 208.803 87.636, 210.563 88.983 C 212.473 90.445, 212.473 90.434, 210.595 88.233 C 208.520 85.800, 207.436 85.257, 208.633 87.250 C 209.143 88.099, 208.842 88.060, 207.692 87.128 C 205.742 85.546, 205.381 83.510, 207.250 84.633 C 208.077 85.130, 208.029 84.803, 207.107 83.668 C 206.342 82.724, 205.483 82.184, 205.200 82.467 C 204.532 83.135, 202 81.039, 202 79.819 C 202 79.303, 202.563 79.211, 203.250 79.613 C 203.938 80.015, 203.643 79.366, 202.595 78.172 C 200.321 75.579, 199.187 75.260, 201.097 77.750 C 201.835 78.713, 201.216 78.409, 199.720 77.076 C 196.740 74.419, 195.936 71.944, 198.750 74.089 C 199.713 74.823, 199.178 73.978, 197.563 72.212 C 194.206 68.541, 192.786 67.878, 195.503 71.250 C 196.500 72.487, 195.502 71.700, 193.285 69.500 C 188.303 64.557, 187.839 64.458, 184.883 67.705 M 435 166.436 L 435 246 445.500 246 L 456 246 456 214.500 L 456 183 471.534 183 L 487.067 183 489.132 186.499 C 490.267 188.423, 491.571 189.765, 492.029 189.482 C 492.487 189.199, 493.187 189.494, 493.585 190.138 C 494.063 190.912, 493.873 191.040, 493.025 190.515 C 492.169 189.986, 491.895 190.185, 492.204 191.111 C 492.458 191.875, 493.154 192.500, 493.750 192.500 C 494.346 192.500, 495.208 192.910, 495.667 193.410 C 496.151 193.939, 495.976 194.019, 495.250 193.601 C 493.514 192.602, 493.676 193.336, 496.098 197.441 C 497.252 199.397, 498.571 200.765, 499.029 200.482 C 499.487 200.199, 500.187 200.494, 500.585 201.138 C 501.063 201.912, 500.873 202.040, 500.025 201.515 C 499.169 200.986, 498.895 201.185, 499.204 202.111 C 499.458 202.875, 500.154 203.500, 500.750 203.500 C 501.346 203.500, 502.208 203.910, 502.667 204.410 C 503.151 204.939, 502.976 205.019, 502.250 204.601 C 500.514 203.602, 500.676 204.336, 503.098 208.441 C 504.252 210.397, 505.571 211.765, 506.029 211.482 C 506.487 211.199, 507.187 211.494, 507.585 212.138 C 508.063 212.912, 507.873 213.040, 507.025 212.515 C 506.169 211.986, 505.895 212.185, 506.204 213.111 C 506.458 213.875, 507.154 214.500, 507.750 214.500 C 508.346 214.500, 509.208 214.910, 509.667 215.410 C 510.151 215.939, 509.976 216.019, 509.250 215.601 C 508.563 215.206, 508 215.118, 508 215.406 C 508 216.590, 514.136 225.500, 514.951 225.500 C 515.436 225.500, 516.208 225.910, 516.667 226.410 C 517.151 226.939, 516.976 227.019, 516.250 226.601 C 515.563 226.206, 515 226.118, 515 226.406 C 515 227.590, 521.136 236.500, 521.951 236.500 C 522.436 236.500, 523.208 236.910, 523.667 237.410 C 524.151 237.939, 523.976 238.019, 523.250 237.601 C 521.376 236.523, 521.719 237.618, 524.633 242.021 L 527.266 246 539.192 246 C 548.460 246, 550.954 245.721, 550.380 244.750 C 548.324 241.266, 537.599 225.367, 536.720 224.500 C 536.039 223.828, 535.969 223.960, 536.508 224.905 C 537.049 225.853, 536.929 226.074, 536.138 225.585 C 535.494 225.187, 535.221 224.452, 535.530 223.952 C 536.301 222.704, 534.112 218.813, 533.019 219.488 C 532.535 219.788, 531.813 219.506, 531.415 218.862 C 530.937 218.088, 531.127 217.960, 531.975 218.485 C 532.831 219.014, 533.105 218.815, 532.796 217.889 C 532.542 217.125, 531.846 216.500, 531.250 216.500 C 530.654 216.500, 529.792 216.090, 529.333 215.590 C 528.841 215.052, 529.065 215.007, 529.880 215.479 C 530.823 216.026, 531.113 215.839, 530.796 214.889 C 530.542 214.125, 529.846 213.500, 529.250 213.500 C 528.654 213.500, 527.792 213.090, 527.333 212.590 C 526.841 212.052, 527.065 212.007, 527.880 212.479 C 528.823 213.026, 529.113 212.839, 528.796 211.889 C 528.542 211.125, 527.846 210.500, 527.250 210.500 C 526.654 210.500, 525.792 210.090, 525.333 209.590 C 524.841 209.052, 525.065 209.007, 525.880 209.479 C 526.823 210.026, 527.113 209.839, 526.796 208.889 C 526.542 208.125, 525.846 207.500, 525.250 207.500 C 524.654 207.500, 523.792 207.090, 523.333 206.590 C 522.841 206.052, 523.065 206.007, 523.880 206.479 C 524.823 207.026, 525.113 206.839, 524.796 205.889 C 524.542 205.125, 523.846 204.500, 523.250 204.500 C 522.654 204.500, 521.792 204.090, 521.333 203.590 C 520.841 203.052, 521.065 203.007, 521.880 203.479 C 522.823 204.026, 523.113 203.839, 522.796 202.889 C 522.542 202.125, 521.846 201.500, 521.250 201.500 C 520.654 201.500, 519.792 201.090, 519.333 200.590 C 518.841 200.052, 519.065 200.007, 519.880 200.479 C 520.823 201.026, 521.113 200.839, 520.796 199.889 C 520.542 199.125, 519.846 198.500, 519.250 198.500 C 518.654 198.500, 517.792 198.090, 517.333 197.590 C 516.841 197.052, 517.065 197.007, 517.880 197.479 C 518.823 198.026, 519.113 197.839, 518.796 196.889 C 518.542 196.125, 517.846 195.500, 517.250 195.500 C 516.654 195.500, 515.792 195.090, 515.333 194.590 C 514.841 194.052, 515.065 194.007, 515.880 194.479 C 516.823 195.026, 517.113 194.839, 516.796 193.889 C 516.542 193.125, 515.846 192.500, 515.250 192.500 C 514.654 192.500, 513.792 192.090, 513.333 191.590 C 512.841 191.052, 513.065 191.007, 513.880 191.479 C 514.823 192.026, 515.113 191.839, 514.796 190.889 C 514.542 190.125, 513.846 189.500, 513.250 189.500 C 512.654 189.500, 511.792 189.090, 511.333 188.590 C 510.841 188.052, 511.065 188.007, 511.880 188.479 C 512.823 189.026, 513.113 188.839, 512.796 187.889 C 512.542 187.125, 511.846 186.500, 511.250 186.500 C 510.654 186.500, 509.792 186.090, 509.333 185.590 C 508.841 185.052, 509.065 185.007, 509.880 185.479 C 510.823 186.026, 511.113 185.839, 510.796 184.889 C 510.542 184.125, 509.733 183.500, 509 183.500 C 508.267 183.500, 507.482 182.825, 507.257 182 C 506.893 180.667, 506.966 180.667, 507.909 182 C 508.492 182.825, 508.976 182.995, 508.985 182.379 C 508.993 181.762, 511.194 180.967, 513.876 180.611 C 520.081 179.788, 529.441 175.124, 535.379 169.897 C 539.605 166.178, 541.747 162.833, 538.750 164.633 C 537.901 165.143, 537.940 164.842, 538.872 163.692 C 540.471 161.721, 541.462 161.428, 540.367 163.250 C 539.778 164.231, 539.953 164.228, 541.178 163.235 C 551.841 154.603, 551.841 115.397, 541.178 106.765 C 539.953 105.772, 539.778 105.769, 540.367 106.750 C 541.462 108.572, 540.471 108.279, 538.872 106.308 C 537.940 105.158, 537.901 104.857, 538.750 105.367 C 541.548 107.048, 539.727 104.004, 535.750 100.352 C 522.530 88.213, 519.880 87.652, 473.750 87.229 L 435 86.873 435 166.436 M 952.667 99.667 C 952.300 100.033, 952 107.233, 952 115.667 L 952 131 942.500 131 L 933 131 933 139 L 933 147 942.440 147 L 951.879 147 952.252 188.250 C 952.519 217.717, 952.984 230.591, 953.879 233.321 C 955.388 237.918, 961.787 245.296, 963.646 244.582 C 964.378 244.302, 964.869 244.583, 964.738 245.208 C 964.374 246.945, 971.744 248.842, 979 248.879 C 985.923 248.915, 995.500 246.276, 995.500 244.333 C 995.500 243.692, 995.910 242.792, 996.410 242.333 C 996.939 241.849, 997.019 242.024, 996.601 242.750 C 995.623 244.450, 997.473 244.340, 998.906 242.613 C 999.790 241.548, 999.558 239.867, 997.905 235.363 C 995.090 227.692, 994.853 227.510, 990.884 229.930 C 986.731 232.461, 979.446 232.667, 975.973 230.352 C 973.570 228.750, 973.549 228.756, 975.259 230.575 C 976.321 231.705, 979.094 232.698, 982.259 233.082 L 987.500 233.718 982.766 233.859 C 978.746 233.979, 977.539 233.534, 974.766 230.915 C 972.970 229.218, 972.139 228.167, 972.920 228.579 C 974.013 229.156, 974.159 228.888, 973.555 227.414 C 971.408 222.181, 971.046 215.790, 971.024 182.750 L 971 147 983 147 L 995 147 995 139 L 995 131 983 131 L 971 131 971 115 L 971 99 962.167 99 C 957.308 99, 953.033 99.300, 952.667 99.667 M 456 135.062 L 456 165.125 481.250 164.812 C 505.697 164.510, 506.659 164.422, 511.500 162.051 C 514.250 160.704, 516.900 159.408, 517.389 159.171 C 517.878 158.934, 517.925 159.361, 517.492 160.120 C 517.060 160.879, 518.572 159.721, 520.853 157.547 C 524.986 153.607, 526.015 152.255, 523.870 153.580 C 523.178 154.008, 522.936 153.740, 523.245 152.889 C 523.523 152.125, 524.290 151.624, 524.949 151.775 C 525.609 151.926, 525.893 151.636, 525.581 151.131 C 525.269 150.626, 525.686 148.308, 526.507 145.981 C 528.674 139.839, 528.411 128.503, 525.978 123.141 C 523.655 118.021, 523.595 117.649, 525.250 118.601 C 525.976 119.019, 526.151 118.939, 525.667 118.410 C 525.208 117.910, 524.346 117.500, 523.750 117.500 C 523.154 117.500, 522.458 116.875, 522.204 116.111 C 521.923 115.268, 522.185 114.996, 522.870 115.420 C 524.906 116.678, 524.057 115.428, 520.845 112.437 C 519.110 110.822, 518.012 110.063, 518.404 110.750 C 519.395 112.484, 518.875 112.348, 513.876 109.559 C 507.561 106.036, 499.132 105.016, 476.250 105.008 L 456 105 456 135.062 M 153.736 107.598 C 153.407 107.927, 153.362 108.781, 153.637 109.497 C 153.912 110.212, 153.586 111.138, 152.914 111.553 C 152.080 112.068, 151.949 111.892, 152.500 111 C 153.024 110.152, 152.918 109.933, 152.198 110.378 C 151.587 110.755, 151.323 111.679, 151.612 112.431 C 151.900 113.183, 151.586 114.138, 150.914 114.553 C 150.080 115.068, 149.949 114.892, 150.500 114 C 151.039 113.127, 150.919 112.932, 150.138 113.415 C 149.494 113.813, 149.221 114.548, 149.530 115.048 C 150.301 116.296, 148.112 120.187, 147.019 119.512 C 146.535 119.212, 145.813 119.494, 145.415 120.138 C 144.963 120.869, 145.124 121.041, 145.845 120.595 C 147.490 119.579, 147.290 120.395, 144.902 124.441 C 143.748 126.397, 142.429 127.765, 141.971 127.482 C 141.513 127.199, 140.813 127.494, 140.415 128.138 C 139.937 128.912, 140.127 129.040, 140.975 128.515 C 141.837 127.983, 142.093 128.179, 141.755 129.111 C 141.477 129.875, 140.710 130.376, 140.051 130.225 C 139.391 130.074, 139.134 130.408, 139.479 130.967 C 140.386 132.433, 133.049 145.148, 131.757 144.350 C 131.144 143.971, 130.982 144.162, 131.377 144.800 C 131.754 145.410, 129.569 150.880, 126.523 156.955 L 120.983 168 126.523 179.045 C 129.569 185.120, 131.754 190.590, 131.377 191.200 C 130.982 191.838, 131.144 192.029, 131.757 191.650 C 133.049 190.852, 140.386 203.567, 139.479 205.033 C 139.134 205.592, 139.391 205.926, 140.051 205.775 C 140.710 205.624, 141.477 206.125, 141.755 206.889 C 142.093 207.821, 141.837 208.017, 140.975 207.485 C 140.127 206.960, 139.937 207.088, 140.415 207.862 C 140.813 208.506, 141.513 208.801, 141.971 208.518 C 142.429 208.235, 143.748 209.603, 144.902 211.559 C 147.324 215.664, 147.486 216.398, 145.750 215.399 C 145.024 214.981, 144.849 215.061, 145.333 215.590 C 145.792 216.090, 146.654 216.500, 147.250 216.500 C 147.846 216.500, 148.542 217.125, 148.796 217.889 C 149.113 218.839, 148.823 219.026, 147.880 218.479 C 147.065 218.007, 146.841 218.052, 147.333 218.590 C 147.792 219.090, 148.654 219.500, 149.250 219.500 C 149.846 219.500, 150.542 220.125, 150.796 220.889 C 151.113 221.839, 150.823 222.026, 149.880 221.479 C 149.065 221.007, 148.841 221.052, 149.333 221.590 C 149.792 222.090, 150.654 222.500, 151.250 222.500 C 151.846 222.500, 152.542 223.125, 152.796 223.889 C 153.113 224.839, 152.823 225.026, 151.880 224.479 C 151.065 224.007, 150.841 224.052, 151.333 224.590 C 151.792 225.090, 152.467 225.538, 152.833 225.584 C 153.200 225.630, 154.850 226.225, 156.500 226.905 C 163.552 229.815, 225.587 227.638, 227.177 224.425 C 228.104 222.552, 228.088 222.552, 226.565 224.441 C 225.704 225.509, 225.010 225.959, 225.022 225.441 C 225.034 224.924, 225.974 223.375, 227.109 222 C 228.245 220.625, 228.840 220.132, 228.432 220.905 C 227.939 221.839, 228.083 222.067, 228.862 221.585 C 229.506 221.187, 229.773 220.442, 229.456 219.929 C 228.620 218.577, 236.065 206.922, 237.284 207.675 C 237.877 208.042, 238.005 207.817, 237.588 207.142 C 236.617 205.572, 242.850 194.789, 244.234 195.644 C 244.859 196.031, 245.020 195.841, 244.619 195.192 C 243.628 193.590, 248.806 183.762, 250.190 184.617 C 250.849 185.024, 251.031 184.859, 250.633 184.215 C 250.261 183.613, 251.641 179.717, 253.699 175.557 L 257.442 167.993 253.199 159.437 C 250.865 154.731, 249.260 150.388, 249.632 149.786 C 250.030 149.142, 249.849 148.975, 249.193 149.381 C 247.812 150.234, 243.632 142.405, 244.617 140.811 C 245.020 140.159, 244.860 139.969, 244.234 140.356 C 242.921 141.167, 236.592 130.469, 237.508 128.987 C 237.860 128.417, 237.609 128.074, 236.949 128.225 C 236.290 128.376, 235.523 127.875, 235.245 127.111 C 234.907 126.179, 235.163 125.983, 236.025 126.515 C 236.873 127.040, 237.063 126.912, 236.585 126.138 C 236.187 125.494, 235.487 125.199, 235.029 125.482 C 234.571 125.765, 233.252 124.397, 232.098 122.441 C 229.676 118.336, 229.514 117.602, 231.250 118.601 C 231.976 119.019, 232.151 118.939, 231.667 118.410 C 231.208 117.910, 230.346 117.500, 229.750 117.500 C 229.154 117.500, 228.458 116.875, 228.204 116.111 C 227.887 115.161, 228.177 114.974, 229.120 115.521 C 229.935 115.993, 230.159 115.948, 229.667 115.410 C 229.208 114.910, 228.346 114.500, 227.750 114.500 C 227.154 114.500, 226.458 113.875, 226.204 113.111 C 225.887 112.161, 226.177 111.974, 227.120 112.521 C 227.935 112.993, 228.159 112.948, 227.667 112.410 C 227.208 111.910, 226.346 111.500, 225.750 111.500 C 225.154 111.500, 224.458 110.875, 224.204 110.111 C 223.883 109.150, 224.166 108.978, 225.120 109.553 C 226.291 110.258, 226.292 110.128, 225.128 108.692 C 224.373 107.761, 223.023 107.032, 222.128 107.070 C 220.696 107.132, 220.706 107.223, 222.213 107.820 C 223.155 108.194, 208.209 108.500, 189 108.500 C 169.791 108.500, 154.845 108.194, 155.787 107.820 C 157.232 107.247, 157.252 107.130, 155.917 107.070 C 155.046 107.032, 154.064 107.269, 153.736 107.598 M 117.150 113.523 C 102.243 116.136, 101 116.481, 101 118.011 C 101 125.756, 113.111 150.337, 114.884 146.189 C 115.953 143.686, 115.928 143.634, 114.516 145.441 C 112.404 148.145, 112.625 146.655, 115.038 141.925 C 116.260 139.531, 117.524 138.206, 118.193 138.619 C 118.859 139.031, 119.030 138.857, 118.617 138.189 C 117.632 136.595, 121.812 128.766, 123.193 129.619 C 123.863 130.034, 124.029 129.856, 123.608 129.175 C 122.647 127.619, 124.837 123.781, 126.205 124.627 C 126.866 125.035, 127.026 124.852, 126.604 124.169 C 125.751 122.788, 130.835 113.780, 132.045 114.528 C 132.515 114.818, 133.337 114.239, 133.872 113.240 C 135.239 110.685, 133.143 110.720, 117.150 113.523 M 243.552 112.084 C 243.874 112.606, 244.535 112.788, 245.019 112.488 C 246.225 111.743, 248.262 115.767, 247.392 117.175 C 246.973 117.852, 247.136 118.034, 247.795 117.627 C 249.163 116.781, 251.353 120.619, 250.392 122.175 C 249.981 122.841, 250.135 123.034, 250.766 122.644 C 252.150 121.789, 258.383 132.572, 257.412 134.142 C 256.971 134.855, 257.125 135.041, 257.807 134.619 C 259.188 133.766, 263.368 141.595, 262.383 143.189 C 261.973 143.853, 262.141 144.031, 262.798 143.625 C 263.425 143.237, 264.500 144.076, 265.278 145.562 C 266.620 148.123, 266.750 147.928, 270.936 137.049 C 277.552 119.860, 278.234 117.202, 276.188 116.594 C 267.517 114.017, 242.620 110.576, 243.552 112.084 M 80.024 122.115 C 78.661 122.658, 76.411 122.873, 75.024 122.591 C 73.636 122.310, 73.141 122.350, 73.924 122.681 C 74.753 123.031, 71.382 124.820, 65.868 126.956 C 60.654 128.977, 52.429 132.736, 47.590 135.310 C 42.752 137.884, 38.421 139.760, 37.966 139.479 C 37.511 139.197, 36.813 139.494, 36.415 140.138 C 35.932 140.919, 36.127 141.039, 37 140.500 C 37.892 139.949, 38.068 140.080, 37.553 140.914 C 37.138 141.586, 36.183 141.900, 35.431 141.612 C 34.679 141.323, 33.755 141.587, 33.378 142.198 C 32.921 142.936, 33.162 143.025, 34.095 142.463 C 35.295 141.740, 35.294 141.870, 34.090 143.354 C 33.314 144.309, 32.137 144.883, 31.474 144.628 C 30.811 144.374, 27.845 146.667, 24.884 149.724 C 21.923 152.781, 20.121 154.931, 20.880 154.502 C 21.639 154.073, 22.066 154.122, 21.829 154.611 C 17.213 164.138, 16.838 165.397, 17.431 169.358 C 17.773 171.636, 18.153 174.475, 18.276 175.667 C 18.399 176.858, 18.894 177.758, 19.375 177.667 C 19.856 177.575, 20.477 178.125, 20.755 178.889 C 21.102 179.845, 20.829 180.029, 19.880 179.479 C 19.065 179.007, 18.841 179.052, 19.333 179.590 C 19.792 180.090, 20.467 180.507, 20.833 180.515 C 22.087 180.544, 24 182.117, 24 183.118 C 24 183.668, 23.438 183.801, 22.750 183.415 C 22.063 183.028, 23.506 184.801, 25.958 187.356 C 30.286 191.864, 31.770 193.055, 30.500 191 C 29.305 189.067, 31.712 190.025, 33.595 192.233 C 35.480 194.442, 35.479 194.451, 33.500 193.031 C 31.760 191.783, 31.667 191.784, 32.788 193.037 C 33.497 193.829, 34.846 194.482, 35.786 194.488 C 36.726 194.495, 37.496 195.025, 37.497 195.667 C 37.499 196.308, 37.910 197.208, 38.410 197.667 C 38.939 198.151, 39.019 197.976, 38.601 197.250 C 37.553 195.428, 38.567 195.702, 42.823 198.388 C 49.337 202.501, 60.131 207.614, 70 211.262 C 82.872 216.022, 84 216.327, 84 215.051 C 84 213.312, 92.726 189.732, 97.543 178.453 L 101.966 168.098 98.399 159.799 C 94.342 150.359, 88.088 134.029, 85.551 126.250 C 83.713 120.612, 83.740 120.632, 80.024 122.115 M 292.086 128.250 C 289.079 137.696, 280.599 159.011, 277.954 163.771 C 275.985 167.316, 275.928 167.168, 277.468 162.500 C 277.830 161.400, 277.394 161.768, 276.497 163.317 C 275.378 165.250, 275.181 166.513, 275.869 167.342 C 277.552 169.370, 287.492 192.847, 291.505 204.272 C 294.938 214.046, 295.483 214.985, 297.394 214.409 C 303.865 212.460, 319.414 206.292, 325.291 203.342 C 329.027 201.467, 332.525 200.207, 333.066 200.541 C 333.607 200.875, 333.926 200.719, 333.775 200.194 C 333.624 199.669, 335.908 197.610, 338.850 195.620 C 344.440 191.838, 345.530 191.333, 344.500 193 C 343.494 194.628, 344.642 194.140, 346.128 192.308 C 347.311 190.849, 347.293 190.735, 346 191.480 C 345.063 192.020, 345.214 191.529, 346.405 190.172 C 348.669 187.590, 350.829 187.228, 348.920 189.750 C 348.191 190.713, 349.486 189.721, 351.797 187.547 C 355.881 183.706, 357.043 182.237, 355 183.500 C 354.450 183.840, 354 183.697, 354 183.181 C 354 182.104, 357.093 179.333, 357.737 179.833 C 357.973 180.017, 358.467 179.832, 358.833 179.423 C 359.200 179.014, 358.938 179.003, 358.250 179.399 C 356.605 180.345, 356.650 180.109, 359 175.500 C 361.324 170.941, 361.544 164.575, 359.500 161 C 357.716 157.880, 357.627 156.667, 359.250 157.601 C 359.976 158.019, 360.151 157.939, 359.667 157.410 C 359.208 156.910, 358.346 156.500, 357.750 156.500 C 357.154 156.500, 356.458 155.875, 356.204 155.111 C 355.889 154.167, 356.183 153.972, 357.120 154.502 C 357.879 154.931, 356.040 152.743, 353.034 149.641 C 347.767 144.205, 346.193 142.885, 347.500 145 C 348.544 146.689, 346.331 146.106, 344.872 144.308 C 343.689 142.849, 343.706 142.738, 345 143.500 C 346.294 144.262, 346.311 144.151, 345.128 142.692 C 343.583 140.788, 342.510 140.398, 343.580 142.130 C 344.004 142.815, 343.732 143.077, 342.889 142.796 C 342.125 142.542, 341.500 141.846, 341.500 141.250 C 341.500 140.654, 341.090 139.792, 340.590 139.333 C 340.061 138.849, 339.981 139.024, 340.399 139.750 C 341.398 141.486, 340.664 141.324, 336.559 138.902 C 334.603 137.748, 333.297 136.329, 333.656 135.748 C 334.015 135.166, 333.841 134.980, 333.269 135.334 C 332.697 135.687, 328.376 134.197, 323.668 132.021 C 317.171 129.020, 296.020 121, 294.600 121 C 294.487 121, 293.355 124.263, 292.086 128.250 M 608.275 129.539 C 601.629 131.329, 590.750 136.786, 591.478 137.965 C 591.783 138.458, 591.506 139.187, 590.862 139.585 C 590.131 140.037, 589.959 139.876, 590.405 139.155 C 592.197 136.254, 588.927 138.516, 583.719 143.779 C 578.566 148.986, 576.356 152.134, 579 150.500 C 580.628 149.494, 580.140 150.642, 578.308 152.128 C 576.867 153.296, 576.742 153.292, 577.463 152.095 C 578.044 151.131, 577.939 150.919, 577.130 151.420 C 568.370 156.834, 563.137 188.754, 568.034 206.903 C 571.878 221.147, 588.277 242.419, 593.111 239.431 C 593.877 238.958, 594.047 239.116, 593.582 239.868 C 591.627 243.031, 612.120 248.965, 625 248.965 C 637.757 248.965, 662.582 241.369, 660.553 238.086 C 660.231 237.564, 660.494 236.813, 661.138 236.415 C 661.869 235.963, 662.041 236.124, 661.595 236.845 C 660.482 238.648, 662.593 238.200, 664.128 236.308 C 665.311 234.849, 665.293 234.735, 664 235.480 C 663.063 236.020, 663.214 235.529, 664.405 234.172 C 666.533 231.746, 667.952 231.148, 666 233.500 C 664.209 235.658, 666.369 235.355, 668.345 233.171 C 670.442 230.854, 670.433 229.596, 668.308 227.872 C 666.849 226.689, 666.738 226.706, 667.500 228 C 668.262 229.294, 668.151 229.311, 666.692 228.128 C 664.860 226.642, 664.372 225.494, 666 226.500 C 667.716 227.560, 667.104 226.002, 664.425 222.491 L 661.850 219.115 655.900 223.495 C 638.369 236.400, 611.339 236.149, 598.461 222.960 C 596.379 220.828, 594.349 219.284, 593.951 219.530 C 593.552 219.777, 592.613 219.222, 591.863 218.297 C 590.709 216.874, 590.712 216.744, 591.880 217.447 C 592.653 217.913, 593.072 217.888, 592.832 217.389 C 588.105 207.562, 586.990 204.678, 586.204 200.250 L 585.273 195 631.637 195 L 678 195 678 188.458 C 678 175.806, 671.293 153.903, 666.144 149.736 C 664.927 148.752, 664.769 148.755, 665.367 149.750 C 666.462 151.572, 665.471 151.279, 663.872 149.308 C 662.940 148.158, 662.901 147.857, 663.750 148.367 C 666.977 150.305, 664.410 146.669, 659.048 141.705 C 646.213 129.822, 625.580 124.878, 608.275 129.539 M 734.202 129.958 C 725.079 132.428, 716.214 137.103, 709.920 142.762 L 705.069 147.123 709.284 153.541 C 714.069 160.824, 714.024 160.795, 715.920 157.750 C 717.214 155.673, 717.190 155.608, 715.618 156.908 C 714.220 158.063, 713.699 158.082, 712.708 157.011 C 711.755 155.982, 711.780 155.865, 712.824 156.458 C 713.626 156.913, 715.191 156.281, 716.794 154.855 C 718.249 153.560, 718.835 153.287, 718.097 154.250 C 716.161 156.775, 718.332 156.408, 720.595 153.828 C 721.643 152.634, 721.938 151.985, 721.250 152.387 C 719.434 153.449, 719.719 152.473, 721.692 150.872 C 723.128 149.708, 723.258 149.709, 722.553 150.880 C 722.087 151.653, 722.112 152.072, 722.611 151.832 C 723.100 151.597, 726.118 150.141, 729.319 148.597 C 755.287 136.071, 776.044 146.650, 777 172.900 L 777.500 186.634 771.725 182.380 C 761.182 174.612, 746.991 171.161, 733.471 173.076 C 690.035 179.227, 688.179 238.910, 731.136 248.123 C 741.550 250.356, 766.063 246.122, 765.262 242.228 C 765.131 241.592, 765.619 241.300, 766.347 241.580 C 767.075 241.859, 768.757 241.134, 770.085 239.968 C 771.413 238.802, 771.825 238.184, 771 238.596 C 769.998 239.096, 770.132 238.623, 771.405 237.172 C 773.533 234.746, 774.952 234.148, 773 236.500 C 772.315 237.325, 772.170 238, 772.678 238 C 774.071 238, 775.878 235.905, 775.586 234.628 C 775.444 234.008, 775.517 233.840, 775.749 234.256 C 775.981 234.672, 776.470 234.826, 776.835 234.599 C 777.201 234.371, 777.348 236.844, 777.161 240.093 L 776.822 246 786.459 246 L 796.095 246 795.797 200.750 L 795.500 155.500 792.772 149.677 C 791.272 146.475, 789.615 144.120, 789.091 144.444 C 788.567 144.768, 787.813 144.506, 787.415 143.862 C 786.963 143.131, 787.124 142.959, 787.845 143.405 C 788.480 143.797, 789 143.697, 789 143.181 C 789 142.163, 786.571 139.867, 785.908 140.259 C 785.684 140.391, 785.609 140.316, 785.741 140.092 C 786.133 139.429, 783.837 137, 782.819 137 C 782.303 137, 782.220 137.563, 782.633 138.250 C 783.143 139.099, 782.842 139.060, 781.692 138.128 C 779.775 136.572, 779.403 135.513, 781.155 136.595 C 781.893 137.052, 782.037 136.868, 781.553 136.086 C 781.138 135.414, 780.174 135.103, 779.411 135.396 C 778.648 135.689, 778.131 135.408, 778.262 134.772 C 779.315 129.655, 747.965 126.230, 734.202 129.958 M 867 129.579 C 860.116 131.390, 849.646 136.587, 847.286 139.364 C 845.543 141.415, 845.548 141.430, 847.500 140 C 849.480 138.549, 849.481 138.557, 847.595 140.767 C 845.643 143.055, 844.394 143.790, 845.500 142 C 846.785 139.921, 844.266 141.113, 841.687 143.805 C 838.673 146.951, 838.064 148.962, 840.750 146.903 C 841.712 146.165, 841.409 146.784, 840.076 148.280 C 837.353 151.335, 836.098 151.921, 838.002 149.250 C 838.688 148.287, 838.042 148.794, 836.566 150.375 C 835.089 151.956, 834.128 153.891, 834.429 154.677 C 834.740 155.485, 834.539 155.833, 833.966 155.479 C 830.798 153.521, 824.946 174.208, 824.896 187.541 C 824.844 201.642, 829.955 221.382, 833.146 219.410 C 833.862 218.967, 834.040 219.127, 833.608 219.825 C 832.738 221.233, 834.775 225.257, 835.981 224.512 C 836.465 224.212, 837.187 224.494, 837.585 225.138 C 838.037 225.869, 837.876 226.041, 837.155 225.595 C 834.153 223.741, 836.596 227.276, 842.160 232.840 C 847.724 238.404, 851.259 240.847, 849.405 237.845 C 848.959 237.124, 849.131 236.963, 849.862 237.415 C 850.506 237.813, 850.783 238.542, 850.478 239.035 C 849.629 240.409, 861.175 245.834, 868.750 247.620 C 884.654 251.370, 910.732 245.900, 915.608 237.791 C 916.148 236.893, 915.793 236.941, 914.442 237.947 C 913.374 238.744, 914.731 237.058, 917.458 234.202 L 922.415 229.010 918.474 224.755 L 914.533 220.500 918.985 224.734 L 923.438 228.967 919.469 233.109 C 917.286 235.386, 916.149 237.053, 916.941 236.811 C 917.734 236.570, 919.734 234.703, 921.385 232.663 L 924.387 228.954 918.977 223.477 C 916.002 220.465, 913.197 218, 912.744 218 C 911.808 218, 903.646 226.145, 903.557 227.167 C 903.526 227.533, 903.090 228.208, 902.590 228.667 C 902.052 229.159, 902.007 228.935, 902.479 228.120 C 903.029 227.171, 902.845 226.898, 901.889 227.245 C 901.125 227.523, 900.624 228.290, 900.775 228.949 C 900.926 229.609, 900.607 229.875, 900.066 229.541 C 899.525 229.206, 896.801 229.679, 894.014 230.590 C 881.508 234.681, 863.929 230.199, 855.384 220.740 C 853.277 218.408, 851.241 216.500, 850.860 216.500 C 850.479 216.500, 849.792 216.090, 849.333 215.590 C 848.839 215.050, 849.078 215.015, 849.920 215.504 C 850.933 216.092, 851.164 215.923, 850.726 214.914 C 844.094 199.625, 842.577 189.913, 844.942 177.888 C 847.299 165.911, 854.569 154.343, 862.231 150.381 C 863.790 149.574, 864.802 148.489, 864.481 147.969 C 864.159 147.449, 864.502 147.255, 865.243 147.540 C 865.983 147.824, 868.538 147.369, 870.920 146.528 C 877.241 144.298, 889.744 144.531, 896.239 146.999 C 902.453 149.361, 902.314 149.341, 901.399 147.750 C 900.981 147.024, 901.061 146.849, 901.590 147.333 C 902.090 147.792, 902.520 148.467, 902.544 148.833 C 902.568 149.200, 904.760 151.632, 907.414 154.239 L 912.241 158.977 915.870 156.088 C 925.083 148.755, 925.156 148.432, 919.113 141.750 C 916.397 138.747, 913.920 137.922, 916.110 140.750 C 917.214 142.175, 917.050 142.146, 915.233 140.595 C 912.800 138.520, 912.257 137.436, 914.250 138.633 C 915.099 139.143, 915.060 138.842, 914.128 137.692 C 912.593 135.800, 910.482 135.352, 911.595 137.155 C 912.041 137.876, 911.869 138.037, 911.138 137.585 C 910.494 137.187, 910.233 136.433, 910.557 135.908 C 911.315 134.681, 902.049 130.591, 895.201 129.130 C 887.987 127.592, 873.688 127.819, 867 129.579 M 183.270 134.054 C 178.027 135.089, 170.522 138.346, 169.475 140.041 C 168.964 140.867, 169.093 141.060, 169.845 140.595 C 171.597 139.513, 171.225 140.572, 169.308 142.128 C 168.158 143.060, 167.857 143.099, 168.367 142.250 C 169.490 140.381, 167.454 140.742, 165.872 142.692 C 164.689 144.151, 164.707 144.266, 166 143.532 C 166.894 143.024, 167.163 143.047, 166.667 143.590 C 166.208 144.090, 165.313 144.500, 164.677 144.500 C 163.109 144.500, 157.201 154.551, 155.861 159.500 C 153.721 167.400, 157.630 187.583, 160.907 185.557 C 161.432 185.233, 162.187 185.494, 162.585 186.138 C 163.037 186.869, 162.876 187.041, 162.155 186.595 C 161.520 186.203, 161 186.297, 161 186.804 C 161 188.594, 171.089 197.180, 172.539 196.624 C 173.329 196.320, 173.869 196.579, 173.738 197.200 C 173.284 199.350, 184.956 202.208, 191.776 201.615 C 198.509 201.031, 207.527 197.661, 206.557 196.093 C 206.233 195.568, 206.494 194.813, 207.138 194.415 C 207.869 193.963, 208.041 194.124, 207.595 194.845 C 205.906 197.579, 208.932 195.632, 213.184 191.250 C 223.834 180.275, 226.886 149.500, 217.324 149.500 C 216.688 149.500, 215.792 149.090, 215.333 148.590 C 214.849 148.061, 215.024 147.981, 215.750 148.399 C 218.275 149.852, 216.895 147.304, 213.208 143.703 C 209.537 140.119, 207.135 138.791, 208.595 141.155 C 209.041 141.876, 208.869 142.037, 208.138 141.585 C 207.494 141.187, 207.216 140.460, 207.519 139.969 C 208.658 138.126, 192.177 132.314, 188.066 133.110 C 187.755 133.170, 185.596 133.595, 183.270 134.054 M 615.270 144.020 C 611.741 144.745, 608.246 146.130, 600.611 149.829 C 600.122 150.066, 600.036 149.751, 600.420 149.130 C 601.770 146.945, 600.372 148.046, 595.958 152.644 C 593.506 155.199, 592.063 156.972, 592.750 156.585 C 594.610 155.538, 594.262 157.543, 592.308 159.128 C 590.849 160.311, 590.734 160.293, 591.468 159 C 591.937 158.175, 591.939 157.847, 591.473 158.270 C 591.007 158.694, 590.514 159.819, 590.377 160.770 C 590.240 161.722, 589.252 164.975, 588.181 168 C 587.110 171.025, 585.957 175.075, 585.618 177 L 585.002 180.500 622.001 180.226 L 659 179.952 658.967 176.726 C 658.939 173.903, 657.082 167.633, 654.483 161.586 C 653.840 160.089, 653.970 159.852, 655.080 160.496 C 655.922 160.985, 656.161 160.950, 655.667 160.410 C 655.208 159.910, 654.346 159.500, 653.750 159.500 C 653.154 159.500, 652.458 158.875, 652.204 158.111 C 651.883 157.150, 652.166 156.978, 653.120 157.553 C 654.288 158.256, 654.291 158.126, 653.137 156.703 C 652.387 155.778, 651.440 155.228, 651.032 155.480 C 650.119 156.045, 645.773 151.560, 646.515 150.818 C 646.808 150.525, 646.276 149.658, 645.332 148.893 C 644.197 147.971, 643.870 147.923, 644.367 148.750 C 644.780 149.438, 644.668 150, 644.118 150 C 643.568 150, 642.858 149.579, 642.540 149.065 C 640.434 145.656, 623.002 142.432, 615.270 144.020 M 738.734 187.094 C 736.663 187.579, 733.063 188.906, 730.734 190.044 L 726.500 192.113 729 189.934 C 731.312 187.918, 731.326 187.858, 729.184 189.127 C 727.910 189.882, 726.924 190.861, 726.992 191.301 C 727.061 191.742, 725.788 193.616, 724.164 195.466 C 718.935 201.421, 718.320 205.718, 720.386 221.848 C 720.862 225.570, 725.515 231.123, 727.514 230.356 C 728.220 230.085, 729.138 230.414, 729.553 231.086 C 730.068 231.920, 729.892 232.051, 729 231.500 C 728.127 230.961, 727.932 231.081, 728.415 231.862 C 728.813 232.506, 729.501 232.808, 729.944 232.534 C 730.388 232.260, 732.861 232.756, 735.441 233.635 C 742.999 236.210, 756.877 235.191, 764.500 231.500 C 767.800 229.903, 770.900 228.403, 771.389 228.168 C 771.878 227.933, 771.925 228.361, 771.492 229.120 C 771.060 229.879, 772.572 228.721, 774.853 226.547 C 778.900 222.689, 780.016 221.254, 778 222.500 C 777.356 222.898, 777 219.038, 777 211.641 C 777 205.328, 776.691 199.339, 776.313 198.332 C 775.708 196.719, 775.828 196.664, 777.313 197.872 C 780.179 200.204, 779.174 198.536, 775.845 195.437 C 774.110 193.822, 773.012 193.063, 773.404 193.750 C 774.468 195.612, 772.457 195.261, 770.872 193.308 C 769.704 191.867, 769.708 191.742, 770.905 192.463 C 771.865 193.041, 772.080 192.939, 771.585 192.138 C 771.187 191.494, 770.518 191.180, 770.097 191.440 C 769.677 191.700, 766.723 190.851, 763.534 189.555 C 760.027 188.130, 758.430 187.060, 759.494 186.849 C 760.461 186.657, 757.034 186.435, 751.877 186.356 C 746.719 186.277, 740.806 186.609, 738.734 187.094 M 109.616 188.559 C 109.251 189.509, 109.189 190.522, 109.476 190.810 C 109.764 191.098, 110 190.733, 110 190 C 110 189.267, 110.231 188.898, 110.513 189.180 C 110.795 189.462, 109.842 192.799, 108.396 196.596 C 101.434 214.870, 100.051 219.884, 101.828 220.401 C 114.389 224.055, 135.404 225.623, 133.889 222.793 C 132.662 220.500, 131.896 220.474, 132.618 222.750 C 132.923 223.713, 131.567 222.025, 129.605 219 C 127.642 215.975, 126.248 212.914, 126.507 212.198 C 126.766 211.482, 126.555 211.157, 126.039 211.476 C 124.791 212.247, 122.714 208.272, 123.608 206.825 C 124.028 206.145, 123.864 205.966, 123.197 206.378 C 121.822 207.228, 118.637 201.396, 119.614 199.816 C 120.030 199.142, 119.860 198.968, 119.190 199.383 C 118.004 200.116, 112.411 190.256, 113.433 189.234 C 113.745 188.922, 114 189.106, 114 189.642 C 114 190.179, 114.685 191.491, 115.521 192.559 C 116.702 194.066, 116.660 193.660, 115.334 190.745 C 114.156 188.157, 113.372 187.380, 112.812 188.245 C 112.168 189.241, 111.822 189.225, 111.139 188.166 C 110.455 187.107, 110.142 187.188, 109.616 188.559 M 268 188.059 C 268 188.641, 267.597 188.869, 267.105 188.565 C 266.612 188.260, 265.941 188.712, 265.612 189.569 C 265.278 190.440, 264.502 190.810, 263.853 190.409 C 263.144 189.971, 262.960 190.127, 263.381 190.808 C 264.372 192.410, 259.194 202.238, 257.810 201.383 C 257.125 200.959, 256.971 201.144, 257.412 201.858 C 258.383 203.428, 252.150 214.211, 250.766 213.356 C 250.135 212.966, 249.981 213.159, 250.392 213.825 C 251.353 215.381, 249.163 219.219, 247.795 218.373 C 247.136 217.966, 246.973 218.148, 247.392 218.825 C 248.262 220.233, 246.225 224.257, 245.019 223.512 C 244.535 223.212, 243.869 223.404, 243.539 223.937 C 242.676 225.333, 252.170 224.473, 265.882 221.912 C 277.428 219.756, 280.014 218.787, 279.985 216.628 C 279.976 215.968, 279.611 216.066, 279.105 216.865 C 278.502 217.816, 277.547 216.147, 275.958 211.365 C 274.702 207.589, 272.392 201.386, 270.824 197.580 C 269.256 193.774, 268.235 189.836, 268.554 188.830 C 268.873 187.823, 268.879 187, 268.567 187 C 268.255 187, 268 187.477, 268 188.059 M 274.118 237.597 C 265.916 239.392, 241.928 242.859, 235.683 243.154 C 231.535 243.349, 230.585 243.806, 228.850 246.440 L 226.835 249.500 229.523 246.500 L 232.212 243.500 230.356 246.827 C 229.335 248.657, 227.851 250.682, 227.058 251.327 C 225.905 252.265, 225.786 252.218, 226.463 251.095 C 227.025 250.162, 226.936 249.921, 226.198 250.378 C 225.587 250.755, 225.293 251.612, 225.545 252.282 C 225.796 252.952, 224.844 254.850, 223.429 256.500 C 222.013 258.150, 221.139 258.938, 221.487 258.250 C 222.391 256.459, 221.481 256.708, 219.872 258.692 C 218.940 259.842, 218.901 260.143, 219.750 259.633 C 221.867 258.361, 221.131 260.578, 218.767 262.595 C 216.557 264.481, 216.549 264.480, 218 262.500 C 219.451 260.520, 219.443 260.519, 217.233 262.405 C 214.945 264.357, 214.210 265.606, 216 264.500 C 217.933 263.305, 216.975 265.712, 214.767 267.595 C 212.557 269.481, 212.549 269.480, 214 267.500 C 215.451 265.520, 215.443 265.519, 213.233 267.405 C 210.945 269.357, 210.210 270.606, 212 269.500 C 214.124 268.188, 212.864 270.771, 210.257 273.076 L 207.514 275.500 209.500 273 L 211.486 270.500 208.743 272.924 C 206.005 275.345, 205.108 276.669, 207 275.500 C 209.090 274.208, 207.872 276.537, 204.800 279.706 L 201.601 283.007 205.550 287.252 L 209.500 291.497 205.500 288 L 201.500 284.503 205.453 288.751 C 209.279 292.864, 210.777 294.066, 209.500 292 C 208.197 289.892, 210.765 291.127, 213.076 293.720 C 214.883 295.747, 214.991 296.070, 213.500 294.987 C 211.520 293.549, 211.519 293.557, 213.405 295.767 C 215.357 298.055, 216.606 298.790, 215.500 297 C 214.456 295.311, 216.669 295.894, 218.128 297.692 C 219.311 299.151, 219.294 299.262, 218 298.500 C 216.706 297.738, 216.689 297.849, 217.872 299.308 C 219.358 301.140, 220.506 301.628, 219.500 300 C 218.456 298.311, 220.669 298.894, 222.128 300.692 C 223.311 302.151, 223.294 302.262, 222 301.500 C 220.706 300.738, 220.689 300.849, 221.872 302.308 C 223.417 304.212, 224.490 304.602, 223.420 302.870 C 222.996 302.185, 223.268 301.923, 224.111 302.204 C 224.875 302.458, 225.500 303.154, 225.500 303.750 C 225.500 304.346, 225.910 305.208, 226.410 305.667 C 226.948 306.159, 226.993 305.935, 226.521 305.120 C 225.974 304.177, 226.161 303.887, 227.111 304.204 C 227.875 304.458, 228.500 305.154, 228.500 305.750 C 228.500 306.346, 228.910 307.208, 229.410 307.667 C 229.939 308.151, 230.019 307.976, 229.601 307.250 C 228.595 305.502, 229.120 305.649, 234.379 308.588 C 236.925 310.011, 238.759 311.581, 238.453 312.077 C 238.147 312.572, 238.668 312.681, 239.612 312.319 C 240.562 311.954, 241.074 312.071, 240.760 312.580 C 240.447 313.086, 241.161 313.572, 242.345 313.661 C 243.530 313.749, 247.650 314.975, 251.500 316.385 C 263.083 320.627, 273.278 319.770, 278.386 314.126 C 279.421 312.983, 280.626 312.269, 281.065 312.540 C 281.503 312.811, 282.187 312.506, 282.585 311.862 C 283.063 311.088, 282.873 310.960, 282.025 311.485 C 281.163 312.017, 280.907 311.821, 281.245 310.889 C 281.523 310.125, 282.240 309.607, 282.839 309.738 C 283.468 309.875, 283.660 309.278, 283.294 308.324 C 282.835 307.127, 283.025 306.897, 283.985 307.490 C 284.814 308.003, 285.069 307.920, 284.666 307.269 C 284.313 306.697, 284.863 302.915, 285.889 298.864 C 289.590 284.257, 289.431 266.726, 285.398 244.750 C 283.595 234.924, 284.298 235.370, 274.118 237.597 M 93.057 248.250 C 88.851 270.052, 89.251 292.675, 94.069 305.405 C 95.090 308.103, 95.710 310.660, 95.447 311.086 C 95.183 311.513, 95.494 312.187, 96.138 312.585 C 96.939 313.080, 97.041 312.865, 96.463 311.905 C 95.742 310.708, 95.867 310.704, 97.308 311.872 C 99.258 313.454, 99.619 315.490, 97.750 314.367 C 96.890 313.851, 96.926 314.141, 97.863 315.297 C 98.613 316.222, 99.612 316.740, 100.084 316.448 C 100.555 316.157, 102.282 316.612, 103.921 317.459 C 109.759 320.478, 122.085 319.066, 133.689 314.050 C 136.543 312.816, 139.425 312.144, 140.093 312.558 C 140.816 313.004, 141.051 312.891, 140.672 312.279 C 140.318 311.706, 143.540 309.213, 147.939 306.657 C 152.285 304.132, 156.129 301.601, 156.480 301.033 C 157.399 299.545, 159.259 299.756, 158.399 301.250 C 157.981 301.976, 158.061 302.151, 158.590 301.667 C 159.090 301.208, 159.500 300.346, 159.500 299.750 C 159.500 299.154, 160.125 298.458, 160.889 298.204 C 161.843 297.886, 162.024 298.173, 161.467 299.120 C 161.021 299.879, 161.634 299.643, 162.828 298.595 C 165.420 296.322, 165.745 295.178, 163.250 297.110 C 161.825 298.214, 161.854 298.050, 163.405 296.233 C 165.428 293.862, 167.611 293.145, 166.398 295.250 C 166.002 295.938, 166.875 295.409, 168.339 294.076 C 171.570 291.133, 171.899 289.936, 168.750 292.579 C 167.512 293.619, 167.822 293.013, 169.437 291.234 C 172.334 288.044, 174.789 286.818, 173.409 289.250 C 173.019 289.938, 174.342 288.949, 176.350 287.054 C 178.357 285.158, 180 283.396, 180 283.137 C 180 282.878, 179.696 282.971, 179.324 283.342 C 178.554 284.113, 174 280.145, 174 278.703 C 174 278.182, 174.787 278.353, 175.750 279.084 C 176.713 279.815, 175.949 278.745, 174.054 276.706 C 170.075 272.427, 168.462 271.649, 172.072 275.750 C 174.400 278.395, 174.369 278.388, 171.246 275.563 C 168.053 272.674, 166.802 270.192, 169.250 271.602 C 169.938 271.998, 169.409 271.125, 168.076 269.661 C 165.133 266.431, 163.930 266.099, 166.588 269.250 C 168.297 271.276, 168.213 271.259, 165.743 269.076 C 162.966 266.621, 161.952 264.269, 164.250 265.613 C 164.938 266.015, 164.643 265.366, 163.595 264.172 C 161.322 261.580, 160.178 261.255, 162.110 263.750 C 163.178 265.129, 162.984 265.089, 161.197 263.563 C 159.950 262.498, 159.144 261.068, 159.405 260.386 C 159.667 259.704, 159.120 258.551, 158.191 257.823 C 156.639 256.609, 156.622 256.664, 157.983 258.500 C 159.451 260.480, 159.443 260.481, 157.233 258.595 C 154.869 256.578, 154.133 254.361, 156.250 255.633 C 157.099 256.143, 157.060 255.842, 156.128 254.692 C 154.529 252.721, 153.538 252.428, 154.633 254.250 C 155.143 255.099, 154.842 255.060, 153.692 254.128 C 151.742 252.546, 151.381 250.510, 153.250 251.633 C 154.099 252.143, 154.060 251.842, 153.128 250.692 C 151.529 248.721, 150.538 248.428, 151.633 250.250 C 152.143 251.099, 151.842 251.060, 150.692 250.128 C 148.742 248.546, 148.381 246.510, 150.250 247.633 C 151.099 248.143, 151.060 247.842, 150.128 246.692 C 148.572 244.775, 147.513 244.403, 148.595 246.155 C 149.052 246.893, 148.868 247.037, 148.086 246.553 C 147.414 246.138, 147.114 245.145, 147.420 244.347 C 147.727 243.549, 147.586 243.138, 147.108 243.433 C 145.982 244.129, 123.793 241.556, 108.839 238.996 C 102.425 237.898, 96.739 237, 96.202 237 C 95.666 237, 94.250 242.063, 93.057 248.250 M 166.888 246.288 C 167.555 246.955, 168.602 247.500, 169.217 247.500 C 169.831 247.500, 170.542 248.125, 170.796 248.889 C 171.117 249.850, 170.834 250.022, 169.880 249.447 C 168.722 248.750, 168.724 248.893, 169.893 250.332 C 170.658 251.276, 171.517 251.816, 171.800 251.533 C 172.468 250.865, 175 252.961, 175 254.181 C 175 254.697, 174.438 254.789, 173.750 254.387 C 173.063 253.985, 173.357 254.634, 174.405 255.828 C 176.678 258.420, 177.822 258.745, 175.890 256.250 C 174.786 254.825, 174.950 254.854, 176.767 256.405 C 179.138 258.428, 179.855 260.611, 177.750 259.398 C 177.063 259.002, 177.591 259.875, 178.924 261.339 C 181.867 264.570, 183.064 264.899, 180.421 261.750 C 179.381 260.512, 179.987 260.822, 181.766 262.437 C 184.956 265.334, 186.182 267.789, 183.750 266.409 C 183.063 266.019, 184.051 267.342, 185.946 269.350 C 189.233 272.831, 190.721 273.976, 189.598 272.158 C 189.312 271.696, 190.744 269.783, 192.779 267.908 C 195.251 265.632, 195.679 265.414, 194.066 267.250 C 190.728 271.052, 191.955 270.720, 195.563 266.845 C 197.178 265.110, 197.938 264.012, 197.250 264.404 C 194.976 265.702, 195.953 263.391, 198.720 260.924 C 200.747 259.117, 201.070 259.009, 199.987 260.500 C 198.549 262.480, 198.557 262.481, 200.767 260.595 C 203.055 258.643, 203.790 257.394, 202 258.500 C 200.067 259.695, 201.025 257.288, 203.233 255.405 C 205.443 253.519, 205.451 253.520, 204 255.500 C 202.549 257.480, 202.557 257.481, 204.767 255.595 C 207.055 253.643, 207.790 252.394, 206 253.500 C 204.311 254.544, 204.894 252.331, 206.692 250.872 C 208.151 249.689, 208.262 249.706, 207.500 251 C 206.738 252.294, 206.849 252.311, 208.308 251.128 C 210.212 249.583, 210.602 248.510, 208.870 249.580 C 208.178 250.008, 207.936 249.740, 208.245 248.889 C 208.523 248.125, 209.213 247.598, 209.779 247.718 C 210.345 247.838, 211.342 247.293, 211.995 246.506 C 213.018 245.274, 209.908 245.077, 189.429 245.077 C 170.829 245.077, 165.940 245.340, 166.888 246.288" stroke="none" fill="#07dbfc" fill-rule="evenodd"/></svg>